# xmcd
#
# Track frame offsets:
# 150
# 18139
# 35227
# 53439
# 73938
# 87564
# 106047
# 125461
# 143192
# 153822
# 173566
# 200712
#
# Disc length: 3000 seconds
#
#
# Revision: 0
# Processed by: cddbd v1.5.1PL2 Copyright (c) Steve Scherf et al.
# Submitted via: FreeRIP 2.944 
#
DISCID=9d0bb60c
DTITLE=Dennis Kolen - The Jinx
DYEAR=2005
DGENRE=Acoustic
TTITLE0=Morningville
TTITLE1=Don't
TTITLE2=2 Bridesmaids
TTITLE3=World at the Window
TTITLE4=My love
TTITLE5=Paper Planes
TTITLE6=The abandoned Armypost
TTITLE7=Parallel Universe
TTITLE8=The shy Ophelia
TTITLE9=Signals from a Star
TTITLE10=Silver Starlight
TTITLE11=Castaway
EXTD=http://www.denniskolen.com/
EXTT0=
EXTT1=
EXTT2=
EXTT3=
EXTT4=
EXTT5=
EXTT6=
EXTT7=
EXTT8=
EXTT9=
EXTT10=
EXTT11=
PLAYORDER=
